<svg xmlns="http://www.w3.org/2000/svg" viewBox="0 0 32 32" width="32" height="32">
  <defs>
    <style>
      .car-body { fill: #2c3e50; }
      .car-window { fill: #3498db; }
      .car-wheel { fill: #34495e; }
      .car-rim { fill: #95a5a6; }
      .car-light { fill: #f39c12; }
    </style>
  </defs>
  
  <!-- Car body -->
  <path class="car-body" d="M4 18 L6 14 L10 12 L22 12 L26 14 L28 18 L28 22 L26 22 L26 20 L6 20 L6 22 L4 22 Z"/>
  
  <!-- Car roof -->
  <path class="car-body" d="M8 12 L10 8 L22 8 L24 12 Z"/>
  
  <!-- Windows -->
  <path class="car-window" d="M9 11 L11 9 L21 9 L23 11 Z"/>
  
  <!-- Front light -->
  <circle class="car-light" cx="27" cy="16" r="1.5"/>
  
  <!-- Back light -->
  <circle class="car-light" cx="5" cy="16" r="1"/>
  
  <!-- Wheels -->
  <circle class="car-wheel" cx="10" cy="20" r="3"/>
  <circle class="car-wheel" cx="22" cy="20" r="3"/>
  
  <!-- Wheel rims -->
  <circle class="car-rim" cx="10" cy="20" r="1.5"/>
  <circle class="car-rim" cx="22" cy="20" r="1.5"/>
</svg>